<svg width="86" height="43" viewBox="0 0 86 43" fill="none" xmlns="http://www.w3.org/2000/svg">
<path d="M0.988 21V1.4H13.28V3.808H3.956V9.996H11.684V12.376H3.956V21H0.988ZM16.0791 21V0.839999H19.0471V21H16.0791ZM29.3017 21.336C27.9764 21.336 26.7817 21.0373 25.7177 20.44C24.6724 19.824 23.8417 18.9747 23.2257 17.892C22.6097 16.7907 22.3017 15.512 22.3017 14.056C22.3017 12.6 22.6097 11.3307 23.2257 10.248C23.8604 9.14667 24.7097 8.29733 25.7737 7.7C26.8377 7.084 28.023 6.776 29.3297 6.776C30.655 6.776 31.8404 7.084 32.8857 7.7C33.9497 8.29733 34.7897 9.14667 35.4057 10.248C36.0404 11.3307 36.3577 12.6 36.3577 14.056C36.3577 15.512 36.0404 16.7907 35.4057 17.892C34.7897 18.9747 33.9497 19.824 32.8857 20.44C31.8217 21.0373 30.627 21.336 29.3017 21.336ZM29.3017 18.788C30.011 18.788 30.6644 18.6107 31.2617 18.256C31.8777 17.9013 32.3724 17.3787 32.7457 16.688C33.119 15.9787 33.3057 15.1013 33.3057 14.056C33.3057 13.0107 33.119 12.1427 32.7457 11.452C32.391 10.7427 31.9057 10.2107 31.2897 9.856C30.6924 9.50133 30.039 9.324 29.3297 9.324C28.6204 9.324 27.9577 9.50133 27.3417 9.856C26.7444 10.2107 26.259 10.7427 25.8857 11.452C25.5124 12.1427 25.3257 13.0107 25.3257 14.056C25.3257 15.1013 25.5124 15.9787 25.8857 16.688C26.259 17.3787 26.7444 17.9013 27.3417 18.256C27.939 18.6107 28.5924 18.788 29.3017 18.788ZM41.8199 21L37.7319 7.112H40.6999L43.3879 17.584L46.4119 7.112H49.7159L52.7399 17.584L55.4279 7.112H58.3959L54.3079 21H51.2559L48.0639 10.08L44.8719 21H41.8199ZM6.56 31.744C5.832 31.744 5.16 31.66 4.544 31.492L3.34 32.668C3.54533 32.7987 3.79733 32.9107 4.096 33.004C4.39467 33.0973 4.81467 33.1813 5.356 33.256C5.89733 33.3307 6.63467 33.4053 7.568 33.48C9.416 33.648 10.7507 34.096 11.572 34.824C12.3933 35.5333 12.804 36.4853 12.804 37.68C12.804 38.5013 12.58 39.276 12.132 40.004C11.7027 40.7507 11.0213 41.348 10.088 41.796C9.17333 42.2627 7.99733 42.496 6.56 42.496C4.61867 42.496 3.04133 42.1227 1.828 41.376C0.633333 40.648 0.036 39.5373 0.036 38.044C0.036 37.4653 0.185333 36.8867 0.484 36.308C0.801333 35.748 1.296 35.216 1.968 34.712C1.576 34.544 1.23067 34.3667 0.932 34.18C0.652 33.9747 0.4 33.7693 0.176 33.564V32.892L2.584 30.428C1.50133 29.4947 0.96 28.272 0.96 26.76C0.96 25.8453 1.17467 25.0147 1.604 24.268C2.052 23.5027 2.696 22.896 3.536 22.448C4.376 22 5.384 21.776 6.56 21.776C7.344 21.776 8.072 21.888 8.744 22.112H13.924V24.072L11.46 24.212C11.908 24.9773 12.132 25.8267 12.132 26.76C12.132 27.6933 11.908 28.5333 11.46 29.28C11.0307 30.0267 10.396 30.624 9.556 31.072C8.73467 31.52 7.736 31.744 6.56 31.744ZM6.56 29.42C7.41867 29.42 8.10933 29.196 8.632 28.748C9.17333 28.2813 9.444 27.628 9.444 26.788C9.444 25.9293 9.17333 25.276 8.632 24.828C8.10933 24.38 7.41867 24.156 6.56 24.156C5.68267 24.156 4.97333 24.38 4.432 24.828C3.90933 25.276 3.648 25.9293 3.648 26.788C3.648 27.628 3.90933 28.2813 4.432 28.748C4.97333 29.196 5.68267 29.42 6.56 29.42ZM2.836 37.764C2.836 38.5667 3.19067 39.164 3.9 39.556C4.60933 39.9667 5.496 40.172 6.56 40.172C7.58667 40.172 8.41733 39.948 9.052 39.5C9.68667 39.0707 10.004 38.492 10.004 37.764C10.004 37.2227 9.78933 36.756 9.36 36.364C8.93067 35.9907 8.11867 35.7573 6.924 35.664C6.028 35.608 5.23467 35.524 4.544 35.412C3.89067 35.7667 3.44267 36.1493 3.2 36.56C2.95733 36.9707 2.836 37.372 2.836 37.764ZM21.2753 36.336C20.0993 36.336 19.1286 36.14 18.3633 35.748C17.598 35.356 17.0286 34.8427 16.6553 34.208C16.282 33.5547 16.0953 32.8453 16.0953 32.08C16.0953 30.736 16.618 29.672 17.6633 28.888C18.7086 28.104 20.202 27.712 22.1433 27.712H25.7833V27.46C25.7833 26.3773 25.4846 25.5653 24.8873 25.024C24.3086 24.4827 23.5526 24.212 22.6193 24.212C21.798 24.212 21.0793 24.4173 20.4633 24.828C19.866 25.22 19.502 25.808 19.3713 26.592H16.4033C16.4966 25.584 16.8326 24.7253 17.4113 24.016C18.0086 23.288 18.7553 22.7373 19.6513 22.364C20.566 21.972 21.5646 21.776 22.6473 21.776C24.5886 21.776 26.0913 22.2893 27.1553 23.316C28.2193 24.324 28.7513 25.7053 28.7513 27.46V36H26.1753L25.9233 33.62C25.5313 34.3853 24.962 35.0293 24.2153 35.552C23.4686 36.0747 22.4886 36.336 21.2753 36.336ZM21.8633 33.928C22.666 33.928 23.338 33.7413 23.8793 33.368C24.4393 32.976 24.8686 32.4627 25.1673 31.828C25.4846 31.1933 25.6806 30.4933 25.7553 29.728H22.4513C21.2753 29.728 20.4353 29.9333 19.9313 30.344C19.446 30.7547 19.2033 31.268 19.2033 31.884C19.2033 32.5187 19.4366 33.0227 19.9033 33.396C20.3886 33.7507 21.042 33.928 21.8633 33.928ZM32.2119 36V22.112H34.8439L35.0959 24.072C35.5439 23.3627 36.1319 22.8027 36.8599 22.392C37.6066 21.9813 38.4653 21.776 39.4359 21.776C41.6386 21.776 43.1693 22.644 44.0279 24.38C44.5319 23.5773 45.2039 22.9427 46.0439 22.476C46.9026 22.0093 47.8266 21.776 48.8159 21.776C50.5519 21.776 51.9146 22.2987 52.9039 23.344C53.8933 24.3893 54.3879 25.948 54.3879 28.02V36H51.4199V28.328C51.4199 25.64 50.3933 24.296 48.3399 24.296C47.2946 24.296 46.4359 24.688 45.7639 25.472C45.1106 26.256 44.7839 27.376 44.7839 28.832V36H41.8159V28.328C41.8159 25.64 40.7799 24.296 38.7079 24.296C37.6813 24.296 36.8319 24.688 36.1599 25.472C35.5066 26.256 35.1799 27.376 35.1799 28.832V36H32.2119ZM64.3564 36.336C62.9937 36.336 61.7804 36.0373 60.7164 35.44C59.671 34.824 58.8497 33.9747 58.2524 32.892C57.655 31.8093 57.3564 30.5493 57.3564 29.112C57.3564 27.656 57.6457 26.3773 58.2244 25.276C58.8217 24.1747 59.643 23.316 60.6884 22.7C61.7524 22.084 62.9844 21.776 64.3844 21.776C65.747 21.776 66.9324 22.084 67.9404 22.7C68.9484 23.2973 69.7324 24.1 70.2924 25.108C70.8524 26.116 71.1324 27.2267 71.1324 28.44C71.1324 28.6267 71.123 28.832 71.1044 29.056C71.1044 29.2613 71.095 29.4947 71.0764 29.756H60.2684C60.3617 31.1 60.8004 32.1267 61.5844 32.836C62.387 33.5267 63.311 33.872 64.3564 33.872C65.1964 33.872 65.8964 33.6853 66.4564 33.312C67.035 32.92 67.4644 32.3973 67.7444 31.744H70.7124C70.339 33.0507 69.5924 34.1427 68.4724 35.02C67.371 35.8973 65.999 36.336 64.3564 36.336ZM64.3564 24.212C63.367 24.212 62.4897 24.5107 61.7244 25.108C60.959 25.6867 60.4924 26.564 60.3244 27.74H68.1644C68.1084 26.6573 67.7257 25.7987 67.0164 25.164C66.307 24.5293 65.4204 24.212 64.3564 24.212ZM79.7559 36.336C78.0013 36.336 76.5546 35.9067 75.4159 35.048C74.2773 34.1893 73.6239 33.0507 73.4559 31.632H76.4519C76.6013 32.2667 76.9559 32.8173 77.5159 33.284C78.0759 33.732 78.8133 33.956 79.7279 33.956C80.6239 33.956 81.2773 33.7693 81.6879 33.396C82.0986 33.0227 82.3039 32.5933 82.3039 32.108C82.3039 31.3987 82.0146 30.9227 81.4359 30.68C80.8759 30.4187 80.0919 30.1853 79.0839 29.98C78.2999 29.812 77.5159 29.588 76.7319 29.308C75.9666 29.028 75.3226 28.636 74.7999 28.132C74.2959 27.6093 74.0439 26.9093 74.0439 26.032C74.0439 24.8187 74.5106 23.8107 75.4439 23.008C76.3773 22.1867 77.6839 21.776 79.3639 21.776C80.9133 21.776 82.1639 22.1493 83.1159 22.896C84.0866 23.6427 84.6559 24.6973 84.8239 26.06H81.9679C81.8746 25.4627 81.5946 24.996 81.1279 24.66C80.6799 24.324 80.0733 24.156 79.3079 24.156C78.5613 24.156 77.9826 24.3147 77.5719 24.632C77.1613 24.9307 76.9559 25.3227 76.9559 25.808C76.9559 26.2933 77.2359 26.676 77.7959 26.956C78.3746 27.236 79.1306 27.488 80.0639 27.712C80.9973 27.9173 81.8559 28.16 82.6399 28.44C83.4426 28.7013 84.0866 29.0933 84.5719 29.616C85.0573 30.1387 85.2999 30.904 85.2999 31.912C85.3186 33.1813 84.8239 34.236 83.8159 35.076C82.8266 35.916 81.4733 36.336 79.7559 36.336Z" fill="white"/>
</svg>
